HIERARCHY
ROOT Hips
{
    OFFSET 0.0 0.0 0.0
    CHANNELS 6 Xposition Yposition Zposition Zrotation Xrotation Yrotation
    JOINT Spine
    {
        OFFSET 0.0 24.99717550194369 0.0
        CHANNELS 3 Zrotation Xrotation Yrotation
        JOINT Head
        {
            OFFSET 0.0 32.07453461521088 0.0
            CHANNELS 3 Zrotation Xrotation Yrotation
        }
        JOINT LeftUpperArm
        {
            OFFSET 16.4291351110527 24.997175501943687 0.0
            CHANNELS 3 Zrotation Xrotation Yrotation
            JOINT LeftLowerArm
            {
                OFFSET 23.871829223782157 0.0 0.0
                CHANNELS 3 Zrotation Xrotation Yrotation
                JOINT LeftHand
                {
                    OFFSET 23.021051914356576 0.0 0.0
                    CHANNELS 3 Zrotation Xrotation Yrotation
                }
                End Site
                {
                OFFSET 6.517608341232653 0.0 0.0
                }
            }
        }
        JOINT RightUpperArm
        {
            OFFSET -16.4291351110527 24.997175501943687 0.0
            CHANNELS 3 Zrotation Xrotation Yrotation
            JOINT RightLowerArm
            {
                OFFSET 23.871829223782157 0.0 0.0
                CHANNELS 3 Zrotation Xrotation Yrotation
                JOINT RightHand
                {
                    OFFSET 23.021051914356576 0.0 0.0
                    CHANNELS 3 Zrotation Xrotation Yrotation
                }
                End Site
                {
                OFFSET 6.517608341232653 0.0 0.0
                }
            }
        }
    }
    JOINT LeftUpperLeg
    {
        OFFSET 9.053016085917449 0.0 0.0
        CHANNELS 3 Zrotation Xrotation Yrotation
        JOINT LeftLowerLeg
        {
            OFFSET 37.82886434284703 0.0 0.0
            CHANNELS 3 Zrotation Xrotation Yrotation
            JOINT LeftFootAnkle
            {
                OFFSET 40.37157936307976 0.0 0.0
                CHANNELS 3 Zrotation Xrotation Yrotation
                End Site
                {
                OFFSET 11.283376939873094 0.0 0.0
                }
            }
        }
    }
    JOINT RightUpperLeg
    {
        OFFSET -9.053016085917449 0.0 0.0
        CHANNELS 3 Zrotation Xrotation Yrotation
        JOINT RightLowerLeg
        {
            OFFSET 37.82886434284703 0.0 0.0
            CHANNELS 3 Zrotation Xrotation Yrotation
            JOINT RightFootAnkle
            {
                OFFSET 40.37157936307976 0.0 0.0
                CHANNELS 3 Zrotation Xrotation Yrotation
                End Site
                {
                OFFSET 11.283376939873094 0.0 0.0
                }
            }
        }
    }
}
MOTION
Frames: 12
Frame Time: 0.03333333333333333
-0.13673777226311123 -0.19259780941782867 -0.08224393816044466 -3.0853157382844847 -14.540355800773561 -14.26141924862161 -0.0 -0.0 -0.0 -23.460490588648938 11.966703388024754 141.58178644934316 173.18947835402523 -28.138548072208707 167.0598213579965 -174.86930872708984 -37.53890256108195 180.0 -24.61124519994418 46.312286690517126 30.991748318263042 22.491668452068986 4.791182176157641 174.6611452340841 21.73386701575425 -83.15472889077905 -7.63333123551244e-14 33.12200707141009 -26.45435141450972 -164.978872690438 -151.81219627960252 66.03370480301719 66.55035083173081 -154.66936529018955 10.839557796931604 180.0 -112.66877693922234 -31.93863350372186 180.0 123.32982567497557 65.61701902997079 155.49998851647604 -162.35865859036252 34.006676683114044 180.0 -89.35727469796255 0.7406944804714862 180.0
-0.13983023739100225 -0.19012023597572159 -0.08198114798489492 -3.0020360244038886 -14.45331984814746 -14.289038887502985 -0.0 -0.0 -0.0 -23.469213347368104 12.234603869793627 141.3228651432425 170.83375301184273 -34.28349396505535 165.53874070856614 -174.73423865310806 -29.603334758538086 180.0 -25.399392199744316 48.18758366183365 33.42923855850845 22.635546284566885 4.554010619750265 174.60418091931004 21.984991845466467 -83.0975849512192 -5.088887490341627e-14 34.323340597157696 -27.189989408039438 -163.38823687593657 -156.05483331672184 69.85606510728196 69.98538099748569 -154.3464605040276 19.34351466186434 180.0 -112.28922734944669 -32.38648903939909 180.0 118.86874994967127 61.33689642398292 159.49032986135583 -161.22488545879665 42.88926129909087 180.0 -91.93719771798285 4.7201511742868885 180.0
-0.14233766838732873 -0.18652764938306254 -0.08233086902200494 -2.8901829237727497 -14.397515879191408 -14.385325560732257 -0.0 -0.0 -0.0 -23.12508267844354 12.7301498140331 140.45644176720054 168.83018639231136 -38.61050986609722 164.35889325866768 -175.10929585848925 -24.398054690238936 180.0 -25.129802177120506 49.010209354155165 33.965215383938656 22.795888812830093 6.050261821862321 174.3089429536912 22.131331095001787 -78.925692141004 2.0355549961366507e-13 34.813673584803745 -29.4556320023155 -161.02558666019738 -159.47196389904383 72.02104490391768 72.59597597387013 -154.78121476152694 21.99401082981581 180.0 -111.74749602595607 -32.197378812499124 180.0 117.02322449637312 59.487063891777744 160.8980766379935 -160.56255727696788 44.716961754496865 180.0 -92.65904229703355 3.18766206436819 180.0
-0.14403050172340012 -0.18283023234101523 -0.08239443126233756 -2.845017307737028 -14.545067856631485 -14.420070938305274 -0.0 -0.0 -0.0 -22.72527174449255 13.363741421473154 139.41909072223058 167.4869600318312 -40.983843627315764 163.4769012983827 -175.2704722106797 -22.36208908689237 180.0 -24.298117365190958 48.76116926447888 33.43750164643214 23.601207883450993 7.8796069260953505 173.9543693544813 23.191190815593764 -76.00478162150023 -5.088887490341627e-14 34.564094218095 -30.270948601536407 -159.95581159893393 -162.55836125015645 72.25148488823572 74.59839394257563 -154.84856528928114 23.436257117989673 180.0 -112.95290312219467 -32.42653860269182 180.0 116.70293402345847 59.32305686005096 160.81148531509655 -160.36982418775304 45.91086491947658 180.0 -93.35204228197935 4.45635418667435 180.0
-0.146013622775167 -0.1800415941345572 -0.08244048999420506 -2.7307885170790533 -14.451398608198692 -14.440508192329787 -0.0 -0.0 -0.0 -22.15390838750711 14.07594967082201 138.03558045546941 165.89784870278595 -43.12973011723765 162.5612242361851 -175.47815122737094 -19.67898970731042 180.0 -23.928103020763416 48.68586365837477 33.398962161413685 23.977297745225826 8.323091945314259 173.8503798396366 23.694089247216947 -74.44793516963675 1.0177774980683254e-13 34.685637526942756 -30.75469518576616 -159.259747784954 -163.65956454976998 72.93766436359701 74.54326901319337 -155.28211222373213 24.6175004709553 180.0 -113.81343153112414 -32.418603141564496 180.0 115.81567083056568 59.08044865147292 161.28682152934059 -160.39239141677373 46.615423276043 180.0 -94.21446660783961 4.674925993825502 180.0
-0.14728119357149427 -0.17772255011199045 -0.08401636320528963 -2.6455194104345563 -14.419545263238431 -14.393219255292694 -0.0 -0.0 -0.0 -21.810012934025977 14.39552038884883 137.32546404057948 164.86149294865507 -45.50335074019495 161.82538887066084 -175.3584424749142 -16.92965183577556 180.0 -23.110310405499238 48.42117285075443 33.002351712294676 24.499791385980046 8.98770109920638 173.6645044539199 24.14326436177408 -70.40100208623765 -0.0 35.338707907491376 -32.877744671190904 -157.09425823533326 -160.98595417064962 72.70666526538676 70.75342268958137 -155.5113276921395 27.787262673151844 180.0 -113.8571034505581 -32.57436770937041 180.0 115.4578730972551 59.31579361864901 161.41027155875625 -160.47546217927805 46.8876096669115 180.0 -94.19851186967956 5.067689561247637 180.0
-0.14897776152422934 -0.17599640887333423 -0.08740711041989067 -2.4769013014767722 -14.418297968005993 -13.884600578929623 -0.0 -0.0 -0.0 -21.625137508115706 14.69675887250221 136.57255624380971 163.06831567050207 -49.90552397828298 160.23456495464643 -174.94853238702223 -12.146539679586459 180.0 -21.77211512393432 48.1417291748458 32.07827472684131 24.931615745426882 10.02463533246961 173.26448867115806 24.768304832891317 -67.22955389222541 -5.088887490341627e-14 35.69937399541869 -33.60571038576747 -155.42762815161936 -157.64667267524396 71.91681890636889 66.66991337993524 -155.62910547043694 27.90395560934149 180.0 -115.00138211690324 -32.86156324387154 180.0 114.7175260197845 58.97254919472256 161.97784496014302 -160.75053742659904 47.48636079137308 180.0 -94.11817504498875 6.083670183304004 180.0
-0.1510234281863567 -0.1749632169502817 -0.08706203879069466 -2.4524447257790625 -14.571058133757612 -13.766659504874257 -0.0 -0.0 -0.0 -21.19645878861807 14.72846492627829 135.98740821234043 163.98008007184458 -49.736862511602624 160.13679411342756 -175.03671706305516 -14.179927381980901 180.0 -19.232287898367858 46.55635108969549 28.657726257941725 25.22468283010935 11.16123996141029 173.1179407088305 25.295340303863554 -68.65313672666 -0.0 33.294631890927036 -30.920169008685857 -157.82878381511063 -157.42143958252728 68.95928864986821 65.53664814325205 -156.17522723858852 22.010543829324636 180.0 -116.70416760439723 -33.118388009625164 180.0 116.51249103935227 59.405389667475916 159.7245269101691 -160.74198394680482 46.30654625035566 180.0 -94.80992449183717 6.629635383548129 180.0
-0.15143487757540533 -0.17381083865145938 -0.08794144339965285 -2.4492004222118577 -14.782787715488725 -13.693073960803359 -0.0 -0.0 -0.0 -21.00862002157302 14.894435583459138 135.58114406122135 167.61611998389066 -44.23496047467686 162.189891917787 -174.96840289909522 -19.91344883795535 180.0 -18.940672659135256 45.949715747197516 28.18701244685818 25.203758640009085 11.73751096961933 172.93318294078048 25.36565796100363 -68.38716989651017 -0.0 32.74629287868789 -29.56788741135094 -157.95690830315777 -157.25603972824635 68.80741341311428 65.23177042554131 -156.31363777484796 18.902651270646317 180.0 -115.93941603531921 -32.42026680232879 180.0 116.88055529440632 59.57870279775695 159.23743012497562 -160.80128895500096 45.47573561866173 180.0 -94.26103508718525 4.8716729114141755 180.0
-0.15153023660257126 -0.1732878669606196 -0.08886483803697258 -2.4655227445746215 -14.978005678861264 -13.631464314247484 -0.0 -0.0 -0.0 -20.8512581191841 15.001055491778695 135.23966129693636 169.75610714401358 -41.20359487861148 163.4341696537171 -174.94833470083634 -23.133422985610316 180.0 -18.52342993664899 45.79338925835408 27.582829446715756 25.166470901300546 12.288707289473326 172.73181291323397 25.331465843819853 -67.78470358204603 -0.0 32.02429303460347 -29.16013983687898 -158.06594346674757 -156.73923592507683 68.56201322632276 64.76457811681651 -156.4721927330516 19.2029867381426 180.0 -115.62950128098743 -32.44401665489831 180.0 117.20398871771825 59.60500317635684 158.8444155535435 -160.80259208269996 45.02339176408485 180.0 -93.95772413348571 5.027624692435417 180.0
-0.1511590897125555 -0.1726530082956834 -0.08981564834963822 -2.5063933814321766 -15.232340027196958 -13.603426369939275 -0.0 -0.0 -0.0 -20.771036859419468 15.237031216687841 134.88802038117458 169.7440055135641 -41.803553998684855 163.50598810658275 -175.2193194950096 -22.78341735756738 180.0 -19.208938527690762 46.00143577538228 28.271202410058017 25.17330853540502 12.48871948494384 172.6412338849984 25.55183183640268 -68.4518899475485 -5.088887490341627e-14 32.11794232449501 -28.707670061331775 -157.58728617577856 -155.54231843279254 68.11854701258304 63.54753933804811 -156.5289474648571 19.879309339624157 180.0 -115.30042418261549 -32.54505877682342 180.0 117.83017213666366 59.886509505212466 158.17465658494933 -160.7980210843214 44.99131834387238 180.0 -93.84338927947795 5.857510934442633 180.0
-0.15041776233414286 -0.17244808109876658 -0.08998847276858175 -2.4626390863020124 -15.128543819231488 -13.561572346511156 -0.0 -0.0 -0.0 -20.67260034203628 15.115355773061657 134.82885503974146 171.47922026721574 -38.70155618421547 164.55639950834518 -175.3902199199471 -25.57945548570423 180.0 -19.829193377084913 46.59877402914387 29.203547173232874 25.11882022329614 12.273875200132565 172.49979759024086 25.56465924410191 -68.43872406804093 -2.5444437451708134e-14 32.30515661639629 -28.82115157391525 -156.5923013498274 -153.79564345012432 68.44321795169567 61.78060342829573 -156.84415063596524 19.602354906836645 180.0 -114.69953018122222 -32.45428733342233 180.0 117.8074271018304 60.16130383581187 158.21967795245618 -160.80806950075498 44.99293622747287 180.0 -93.44566733164243 6.492209150591183 180.0
